<svg width="118" height="87" viewBox="0 0 118 87" fill="none" xmlns="http://www.w3.org/2000/svg">
<path d="M54.8001 23.0463C54.8001 8.76456 38.824 0 27.3477 0C19.6736 0 14.8947 3.77121 14.8947 9.81212V13.6881H11.6507C5.99976 13.6881 0 19.6941 0 25.3858V68.7547C0 70.9895 1.81388 72.8052 4.04635 72.8052H14.5808C14.6506 72.8052 14.7203 72.8052 14.7552 72.7703C16.9179 72.6655 18.6272 70.8847 18.6272 68.7198C18.6272 68.7198 18.6272 26.8524 18.6272 17.4244H27.4175C32.2313 17.4244 36.173 21.3702 36.173 26.1889V68.7198C36.173 70.9545 37.9868 72.7703 40.2193 72.7703H50.7538C52.9862 72.7703 54.8001 70.9545 54.8001 68.7198C54.835 49.8637 54.8001 23.0463 54.8001 23.0463ZM4.77888 69.0689C4.22076 69.0689 3.76729 68.615 3.76729 68.0563V25.4207C3.76729 21.859 8.12758 17.4593 11.6507 17.4593H14.8947C14.8947 48.7114 14.8947 64.7041 14.8947 68.0912C14.8947 68.6499 14.4413 69.1038 13.8832 69.1038H4.77888V69.0689ZM51.0677 68.0912C51.0677 68.6499 50.6142 69.0689 50.0561 69.0689H40.9169C40.3588 69.0689 39.9054 68.615 39.9054 68.0563V26.2238C39.9054 19.31 34.2893 13.6881 27.3826 13.6881H18.6272V9.81212C18.6272 7.54241 19.7434 3.77121 27.3477 3.77121C42.0332 3.77121 51.0328 15.015 51.0328 23.0463C51.0677 23.0463 51.0677 49.2352 51.0677 68.0912ZM113.263 13.6182H102.728C100.496 13.6182 98.6821 15.434 98.6821 17.6688C98.6821 18.6116 98.6821 58.5584 98.6821 68.9642H89.9266C85.1128 68.9642 81.1711 65.0184 81.1711 60.1996V17.6688C81.1711 15.434 79.3573 13.6182 77.1248 13.6182H66.5903C64.3579 13.6182 62.544 15.434 62.544 17.6688C62.544 36.2106 62.544 63.3772 62.544 63.3772C62.544 77.6589 78.5201 86.4235 89.9964 86.4235C97.6705 86.4235 102.449 82.6523 102.449 76.6113V72.7354H105.693C111.344 72.7354 117.344 66.7294 117.344 61.0377V17.6688C117.309 15.434 115.495 13.6182 113.263 13.6182ZM98.6821 76.6463C98.6821 78.916 97.5658 82.6872 89.9615 82.6872C75.276 82.6872 66.2764 71.4434 66.2764 63.4121C66.2764 63.4121 66.2415 37.3629 66.2764 18.3672C66.2764 17.8085 66.7299 17.3894 67.288 17.3894H76.4271C76.9853 17.3894 77.4387 17.8434 77.4387 18.4021V60.2695C77.4387 67.1833 83.0548 72.8052 89.9615 72.8052H98.7169L98.6821 76.6463ZM113.577 61.0377C113.577 64.5994 109.217 68.9991 105.693 68.9991H102.449C102.449 47.175 102.449 22.6971 102.449 18.3672C102.449 17.8085 102.903 17.3894 103.461 17.3894H109.879H112.6C113.158 17.3894 113.612 17.8434 113.612 18.4021V61.0377H113.577Z" fill="white"/>
</svg>
