<svg width="70" height="70" viewBox="0 0 70 70" fill="none" xmlns="http://www.w3.org/2000/svg">
<rect x="11" y="12" width="47" height="47" fill="white"/>
<path d="M67.2 0H2.8C1.25125 0 0 1.25125 0 2.8V67.2C0 68.7487 1.25125 70 2.8 70H67.2C68.7487 70 70 68.7487 70 67.2V2.8C70 1.25125 68.7487 0 67.2 0ZM51.8 37.1C51.8 37.485 51.485 37.8 51.1 37.8H37.8V51.1C37.8 51.485 37.485 51.8 37.1 51.8H32.9C32.515 51.8 32.2 51.485 32.2 51.1V37.8H18.9C18.515 37.8 18.2 37.485 18.2 37.1V32.9C18.2 32.515 18.515 32.2 18.9 32.2H32.2V18.9C32.2 18.515 32.515 18.2 32.9 18.2H37.1C37.485 18.2 37.8 18.515 37.8 18.9V32.2H51.1C51.485 32.2 51.8 32.515 51.8 32.9V37.1Z" fill="#FF9839"/>
</svg>
